<?xml version="1.0" encoding="UTF-8" standalone="no"?>
<!-- Created with Inkscape (http://www.inkscape.org/) -->

<svg
   width="1024"
   height="1024"
   viewBox="0 0 270.93332 270.93333"
   version="1.1"
   id="svg1"
   inkscape:version="1.3.2 (091e20e, 2023-11-25, custom)"
   sodipodi:docname="_avatar-template.svg"
   xmlns:inkscape="http://www.inkscape.org/namespaces/inkscape"
   xmlns:sodipodi="http://sodipodi.sourceforge.net/DTD/sodipodi-0.dtd"
   xmlns="http://www.w3.org/2000/svg"
   xmlns:svg="http://www.w3.org/2000/svg">
  <sodipodi:namedview
     id="namedview1"
     pagecolor="#ffffff"
     bordercolor="#000000"
     borderopacity="0.25"
     inkscape:showpageshadow="2"
     inkscape:pageopacity="0.0"
     inkscape:pagecheckerboard="0"
     inkscape:deskcolor="#d1d1d1"
     inkscape:document-units="px"
     showgrid="true"
     showguides="true"
     inkscape:zoom="0.41984713"
     inkscape:cx="46.445476"
     inkscape:cy="774.09127"
     inkscape:window-width="1838"
     inkscape:window-height="920"
     inkscape:window-x="64"
     inkscape:window-y="40"
     inkscape:window-maximized="0"
     inkscape:current-layer="layer1">
    <inkscape:grid
       id="grid1"
       units="px"
       originx="0"
       originy="0"
       spacingx="8.4666664"
       spacingy="8.4666664"
       empcolor="#0099e5"
       empopacity="0.30196078"
       color="#0099e5"
       opacity="0.14901961"
       empspacing="4"
       dotted="false"
       gridanglex="30"
       gridanglez="30"
       visible="true" />
    <sodipodi:guide
       position="135.46666,61.576239"
       orientation="0,1"
       id="guide1"
       inkscape:locked="false"
       inkscape:label=""
       inkscape:color="rgb(0,134,229)" />
  </sodipodi:namedview>
  <defs
     id="defs1" />
  <g
     inkscape:label="Layer 1"
     inkscape:groupmode="layer"
     id="layer1"
     style="display:inline">
    <rect
       style="fill:#484aa0;fill-opacity:1;stroke-width:0"
       id="rect1"
       width="270.93332"
       height="270.93329"
       x="0"
       y="0" />
    <text
       xml:space="preserve"
       style="font-style:normal;font-variant:normal;font-weight:normal;font-stretch:normal;font-size:173.899px;font-family:'Font Awesome 6 Free';-inkscape-font-specification:'Font Awesome 6 Free';text-align:center;text-anchor:middle;fill:#b2b3de;stroke:none;stroke-width:0;stroke-dasharray:none"
       x="135.46666"
       y="198.3737"
       id="text2"><tspan
         sodipodi:role="line"
         id="tspan1"
         style="font-style:normal;font-variant:normal;font-weight:normal;font-stretch:normal;font-family:'Font Awesome 6 Free';-inkscape-font-specification:'Font Awesome 6 Free';stroke:none;stroke-width:0;stroke-dasharray:none"
         x="135.46666"
         y="198.3737">󰂣</tspan></text>
    <path
       stroke="#848485"
       stroke-width="0.376698"
       fill="none"
       stroke-linecap="butt"
       vector-effect="non-scaling-stroke"
       d="m -107.12469,-131.26805 q 0.33714,0.20341 0.70254,0.34657 0.46898,0.18457 0.90219,0.39365 5.850116,2.80451 11.357443,4.67106 4.017487,1.36365 7.711017,2.27714 0.92856,0.2279 1.98332,0.37669 0.0358,0.003 0.0321,0.0377 l -0.002,0.0565 q -0.005,0.0772 -0.0829,0.0791 -4.34522,0.15257 -6.83896,-0.0621 -1.589667,-0.1375 -3.264097,-0.34657 -2.996627,-0.37669 -6.074243,-1.17153 -0.88713,-0.2279 -1.81004,-0.58012 -0.35409,-0.13373 -0.0942,0.14315 0.30324,0.32584 0.67618,0.61214 2.292196,1.75165 4.848083,3.15861 2.75179,1.51433 4.51473,2.35248 5.305817,2.52389 11.267057,4.28306 4.56182,1.3467 9.1387,1.87974 3.68601,0.42943 6.85404,0.18457 0.54433,-0.0433 1.08112,-0.0791 0.60083,-0.0415 0.0339,0.16385 c -3.75004,1.35235 -7.64133,2.06996 -11.60231,2.17732 q -2.14718,0.0583 -4.2793,-0.29759 -0.35222,-0.0583 -0.0621,0.1488 1.89668,1.36365 3.96853,2.4071 1.22616,0.61779 4.39231,1.67065 7.76752,2.58227 15.64616,1.9061 0.61591,-0.0527 0.0452,0.18835 -6.14018,2.60299 -12.88873,2.71412 -0.52549,0.008 -0.0734,0.27687 1.16587,0.69689 2.26395,1.18659 5.6825,2.535184 11.86601,3.058804 a 0.19588322,0.19588322 0 0 1 0.17705,0.22037 q -0.18836,1.47476 -0.59519,2.8874 -1.32221,4.59195 -3.72367,8.68854 c -3.217,5.49038 -7.16481,10.32155 -11.65316,14.83439 q -8.40792,8.44746 -18.5204,15.29584 -3.746257,2.53706 -5.940527,3.86681 -11.528833,6.98022 -24.116203,11.76618 c -2.01535,0.76657 -4.26612,1.47854 -6.38505,2.134 q -0.34656,0.10737 0.0169,0.11865 6.87475,0.23168 13.98116,-0.76847 8.54352,-1.20166 16.864783,-3.88564 0.42755,-0.13749 0.13372,0.20154 -8.357043,9.68116 -18.733193,17.53907 -4.35652,3.29801 -8.32504,5.56949 -0.3767,0.2166 0.0358,0.0791 1.3241,-0.44074 2.7386,-0.87394 3.73873,-1.14705 7.30795,-2.58228 9.68303,-3.88939 18.495893,-9.50409 1.542577,-0.98318 3.103987,-2.07562 6.07049,-4.24538 11.07682,-8.73751 c 4.86318,-4.36217 9.21593,-9.21781 13.19952,-14.4332 q 4.22845,-5.5337 7.1874,-11.85847 0.0339,-0.0716 0.10737,-0.0415 l 0.0453,0.0207 q 0.0227,0.01 0.0132,0.0301 -1.94564,4.86694 -3.79147,8.7733 c -3.71236,7.85981 -8.42674,15.20544 -13.80788,22.02745 q -1.16965,1.48419 -2.36567,2.87608 -10.6794,12.42918 -24.18215,21.44358 -2.08879,1.39377 -4.19077,2.55401 -0.0358,0.0207 -0.0189,0.0565 l 0.002,0.002 q 0.004,0.0113 0.0151,0.008 3.51836,-1.2224 6.987756,-2.52201 3.563567,-1.33162 7.724194,-3.30928 8.39473,-3.98548 16.04924,-8.91646 10.96005,-7.05933 20.34172,-15.45971 c 3.0136,-2.69905 6.09687,-5.80116 8.60756,-8.44558 q 7.32679,-7.71101 13.7382,-17.47881 c 0.1243,-0.19024 0.19023,-0.30701 0.41813,-0.36917 q 1.87596,-0.51042 3.8216,-1.03216 9.71883,-2.61051 18.68803,-7.15914 6.88416,-3.49199 12.84542,-8.14987 7.9634,-6.22495 12.85483,-14.80991 c 1.34482,-2.361904 2.5107,-4.900844 3.75757,-7.353154 q 1.10749,-2.17919 2.51447,-3.50707 2.94012,-2.77626 4.96864,-5.61091 2.12835,-2.97403 4.26988,-5.40563 1.64052,-1.86277 3.52025,-2.94767 1.44652,-0.83626 2.28091,-1.13197 3.05314,-1.08679 6.3323,-1.82887 2.02098,-0.45769 4.28683,-0.57824 a 0.07910668,0.07722319 81.5 0 0 0.0716,-0.098 q -0.0113,-0.0396 -0.0415,-0.0678 -0.0321,-0.0301 -0.0716,-0.0452 -1.39566,-0.52927 -2.48056,-0.74021 -4.05515,-0.78354 -8.22521,-1.77049 -1.29019,-0.30513 -2.14718,-1.37683 -1.33728,-1.67442 -3.06256,-3.46563 c -4.24726,-4.41302 -9.94861,-6.55078 -15.97202,-5.69945 q -4.92344,0.69689 -9.19709,3.63702 -2.61052,1.79687 -4.72379,3.57111 c -2.30163,1.93247 -4.65411,3.80842 -7.46806,4.85376 q -2.02098,0.75152 -4.29248,0.36163 c -6.81824,-1.16776 -11.00336,-6.70335 -13.52724,-12.71357 -1.52752,-3.63892 -2.88551,-7.44359 -4.48648,-11.08438 q -4.33957,-9.87515 -13.0997,-15.42015 -1.59719,-1.01144 -3.45997,-1.93812 -5.50544,-2.73672 -11.50814,-4.0966 -6.62989,-1.50114 -13.07709,-2.06996 -7.38706,-0.65169 -19.97255,-1.58213 c -3.691757,-0.27124 -7.396597,-0.64795 -11.05432,-1.01899 q -15.1417,-1.53334 -28.6275,-4.32279 -4.12109,-0.85322 -8.53034,-2.02099 -11.93946,-3.1605 -22.38531,-8.33634 -2.7612,-1.3693 -5.90475,-3.33755 c -1.02274,-0.64227 -1.97202,-1.36554 -2.99663,-2.0191 q -0.0961,-0.0622 -0.0961,0.0528 0,0.0283 0.0169,0.0508 0.81179,0.97188 1.67442,1.90421 3.31307,3.58052 6.37751,6.40952 6.7542,6.23436 13.9435,11.69084 15.859,12.03364 34.11569,20.12512 1.87596,0.8325 4.68048,1.63298 0.047,0.0151 0.0339,0.0641 l -0.0113,0.0451 a 0.08664065,0.08664065 0 0 1 -0.10359,0.0621 q -6.31911,-1.47282 -11.3518,-2.85341 -5.7164,-1.56707 -11.78125,-3.83667 -6.86909,-2.57285 -14.07157,-6.32101 -4.41114,-2.29598 -8.60755,-5.10803 -0.27877,-0.18835 -0.11867,0.10736 0.0414,0.0772 0.10171,0.14503 4.98184,5.61846 10.84139,10.33849 1.14139,0.91915 2.95331,2.34306 11.55146,9.07089 24.75098,15.79874 1.5746,0.80238 3.39028,1.63676 2.81394,1.29021 5.79362,2.6143 0.86641,0.38423 1.93812,0.79295 0.19965,0.0772 -0.006,0.13184 -0.0697,0.0189 -0.14126,0.0114 -5.05906,-0.5142 -9.43818,-1.66501 -8.96354,-2.35815 -17.22077,-6.68831 -0.3428,-0.18082 -0.0641,0.0886 c 2.68586,2.603 5.64671,4.85567 9.18014,7.47938 q 3.76699,2.79699 11.43845,7.33432 0.61779,0.3654 1.67066,0.90784 0.0283,0.0151 0.0603,0.01 0.0263,-0.005 0.0546,-0.008 0.047,-0.002 0.0829,0.0283 0.48971,0.4332 1.08301,0.68559 0.35409,0.15068 0.69689,0.35975"
       id="path1"
       style="fill:#b2b3de;fill-opacity:1;stroke:none" />
  </g>
  <g
     inkscape:groupmode="layer"
     id="layer2"
     inkscape:label="layout"
     style="display:none">
    <path
       id="path2"
       style="fill:#000000;stroke-width:0.264583"
       d="M 0,0 V 135.46666 A 135.46666,135.46666 0 0 1 135.46666,0 Z M 135.46666,0 A 135.46666,135.46666 0 0 1 270.93332,135.46666 V 0 Z M 270.93332,135.46666 A 135.46666,135.46666 0 0 1 135.46666,270.93332 H 270.93332 Z M 135.46666,270.93332 A 135.46666,135.46666 0 0 1 0,135.46666 v 135.46666 z" />
  </g>
</svg>
